<?xml version="1.0" encoding="UTF-8"?>
<svg version="1.1" xmlns="http://www.w3.org/2000/svg" width="377" height="285">
<path d="M0 0 C0.9458345 -0.00807175 1.89166901 -0.01614349 2.86616516 -0.02445984 C4.86575508 -0.03826446 6.8653682 -0.04900274 8.86499023 -0.05688477 C10.89663668 -0.06839046 12.92825324 -0.08881981 14.9597168 -0.1184082 C17.91085135 -0.16135212 20.86109068 -0.1772913 23.8125 -0.1875 C25.15522224 -0.21376213 25.15522224 -0.21376213 26.52507019 -0.24055481 C36.43927832 -0.20698532 44.99786944 3.47856068 52.23828125 10.23828125 C60.28985518 18.80722539 62.75512773 26.64318303 62.65820312 38.28759766 C62.2884905 48.36226672 58.19680056 56.05885657 51.23828125 63.23828125 C46.59310738 67.16881298 41.70783452 69.51237845 36.05078125 71.67578125 C29.02241955 74.52632085 25.84890745 77.52041911 22.83203125 84.484375 C22.34734375 85.68191406 21.86265625 86.87945312 21.36328125 88.11328125 C17.53305094 97.49934043 11.64915253 104.98545557 2.23828125 109.23828125 C-7.78305367 112.63473368 -19.467636 112.81578188 -29.296875 108.6328125 C-38.50553667 103.42284069 -44.93284143 95.7116037 -48.13967896 85.72497559 C-49.16636378 81.62065402 -49.20980529 77.6229595 -49.1953125 73.41015625 C-49.20055435 72.4992926 -49.2057962 71.58842896 -49.2111969 70.64996338 C-49.21758092 68.7339377 -49.21632742 66.81787264 -49.20776367 64.90185547 C-49.19928057 62.00936031 -49.22802267 59.11886199 -49.25976562 56.2265625 C-49.32171858 40.0332277 -46.97483269 25.84147227 -35.51171875 13.48828125 C-25.3065507 3.91529176 -13.66811022 0.11153079 0 0 Z M-25.5234375 28.41796875 C-30.43349315 35.47988898 -32.07390649 41.56933318 -32.09765625 50.07421875 C-32.10431305 50.91240143 -32.11096985 51.75058411 -32.11782837 52.61416626 C-32.127916 54.38077615 -32.1326466 56.14742384 -32.13232422 57.9140625 C-32.13669436 60.59830317 -32.17304528 63.28089375 -32.2109375 65.96484375 C-32.21680735 67.68879652 -32.22077562 69.41275702 -32.22265625 71.13671875 C-32.23702728 71.92968353 -32.25139832 72.72264832 -32.26620483 73.53964233 C-32.22037979 79.20582248 -30.90980346 83.49459553 -27.76171875 88.23828125 C-22.15806619 93.56175118 -17.4948122 94.82464205 -9.875 94.67578125 C-4.79169482 93.96143974 -1.36632699 91.83517084 2.23828125 88.23828125 C4.00143065 85.7194964 5.09228044 83.08188491 6.23828125 80.23828125 C11.89857642 67.47250917 17.52411512 60.75442753 30.51513672 55.6706543 C36.56091717 53.29641526 41.35714223 50.39276495 44.5078125 44.42578125 C46.2489265 39.21175002 46.2489265 33.26481248 44.5078125 28.05078125 C41.83457177 22.98799065 37.55081922 19.27561641 32.23828125 17.23828125 C29.3368166 17.03349126 26.53422131 16.9342118 23.6328125 16.9375 C22.37485115 16.93107231 22.37485115 16.93107231 21.09147644 16.92451477 C19.31709697 16.91877758 17.54269398 16.91826672 15.76831055 16.92260742 C13.07754356 16.92574999 10.38789537 16.90236202 7.69726562 16.87695312 C5.96744929 16.87467807 4.23763003 16.87397759 2.5078125 16.875 C1.31669609 16.86118538 1.31669609 16.86118538 0.10151672 16.84709167 C-10.06996004 16.92967046 -19.03505937 20.39021931 -25.5234375 28.41796875 Z " fill="#F0F0F1" transform="translate(129.76171875,91.76171875)"/>
<path d="M0 0 C1.00184326 0.23533447 2.00368652 0.47066895 3.03588867 0.71313477 C13.29872711 3.38456537 20.99767462 8.16702692 26.5 17.375 C29.1751988 22.98017844 29.12386803 29.25790641 29.5 35.375 C28.84 35.375 28.18 35.375 27.5 35.375 C27.45875 36.2 27.4175 37.025 27.375 37.875 C25.56459934 45.11660263 20.46986853 50.21549134 14.265625 54.140625 C10.86473015 55.65853852 7.45863445 56.31871361 3.8125 56.9375 C-2.32172274 58.00272431 -5.42275561 58.67048724 -9.5 63.375 C-10.41842902 64.68626739 -11.33496557 65.99886153 -12.25 67.3125 C-16.08960813 72.66161106 -21.69553819 76.43527515 -28.109375 78.01953125 C-36.36054219 79.24642049 -43.38205565 77.43397217 -50.75 73.75 C-55.92199518 69.28327689 -60.1476348 63.13682598 -61.5 56.375 C-62.0491828 48.29761598 -60.85177108 41.10560684 -58.8125 33.3125 C-58.56822266 32.30123047 -58.32394531 31.28996094 -58.07226562 30.24804688 C-55.10067871 18.56482036 -50.57610448 8.19190504 -39.8671875 1.8046875 C-26.66003876 -4.93365369 -14.0651262 -3.41896098 0 0 Z M-38.5 17.375 C-42.2917127 23.05135097 -43.76434003 28.5567643 -45.1875 35.1875 C-45.60613367 37.06944285 -46.02661457 38.95097603 -46.44921875 40.83203125 C-46.62799561 41.65678955 -46.80677246 42.48154785 -46.9909668 43.33129883 C-47.5 45.375 -47.5 45.375 -48.5 47.375 C-48.9845304 52.31721011 -48.47799777 55.67634436 -45.8203125 59.79296875 C-42.92398541 63.26341985 -39.81846735 65.13699804 -35.29296875 65.6015625 C-30.06108613 65.36982664 -26.86385925 63.76082294 -23.1015625 60.1875 C-21.45003837 58.31845806 -20.08635773 56.37561978 -18.6875 54.3125 C-13.75678804 47.51330772 -6.69471436 45.51467309 1.25 43.875 C6.76553126 42.72511892 9.72226861 41.56113478 13.5 37.375 C16.02304977 33.10522346 16.27730544 29.22702239 15.5 24.375 C13.69573717 20.0028096 11.38255734 17.82460468 7.1875 15.6875 C5.63390128 15.21937233 4.06920008 14.78782394 2.5 14.375 C1.31792969 14.024375 0.13585937 13.67375 -1.08203125 13.3125 C-14.30259166 9.5440301 -27.61882507 7.06651849 -38.5 17.375 Z " fill="#E9EAEC" transform="translate(323.5,179.625)"/>
<path d="M0 0 C5.3304512 4.61039025 9.34917124 10.19200253 10.3125 17.30859375 C10.67998733 24.66982439 9.04391928 31.3445484 4.26953125 37.078125 C-1.25275359 42.32484672 -6.9977517 44.57118768 -14.5 45.375 C-22.37474885 44.53127691 -28.72066868 42.06094661 -34 36 C-37.99830373 30.23952594 -39.58834184 23.86966016 -38.74609375 16.8984375 C-37.05717558 9.01681936 -33.58577847 3.76814812 -27.00390625 -0.77734375 C-18.33117995 -6.06889021 -8.55183125 -5.0462872 0 0 Z M-21 16 C-22.25329784 18.85289698 -22.25329784 18.85289698 -22 22 C-20.19325552 25.12705776 -18.9154573 26.62442777 -15.5625 28 C-12.07227035 28 -10.61081072 27.32072064 -8 25 C-6.66339855 21.64407137 -6.66339855 21.64407137 -7 18 C-9.0424351 14.95726583 -9.0424351 14.95726583 -12 13 C-16.31858974 13 -17.70674025 13.3297894 -21 16 Z " fill="#EEEFF0" transform="translate(72,64)"/>
<path d="M0 0 C6.14949253 4.00912145 10.17440908 8.83455564 12 16 C13.03234606 23.44149454 11.95917973 29.59544456 8 36 C3.34029875 41.66720422 -2.69975629 45.38180714 -10.04296875 46.23828125 C-17.39787509 46.49282264 -22.52021182 44.05623847 -28.75 40.375 C-33.99598301 34.83757349 -36.31483583 28.99067331 -36.5625 21.375 C-36.19637601 13.37659895 -34.03441219 8.66447295 -28.25 3.1875 C-19.59064723 -3.84922822 -10.10982102 -4.88120224 0 0 Z M-16.875 15.5 C-19.28764001 17.91316107 -19.28764001 17.91316107 -19.625 21.5 C-19.28764001 25.08683893 -19.28764001 25.08683893 -16.875 27.5 C-14.07850006 29.25177508 -14.07850006 29.25177508 -10.875 28.9375 C-7.27793115 27.79675187 -7.27793115 27.79675187 -5 25 C-4.57831211 21.69677822 -4.66309004 19.69253713 -6.125 16.6875 C-9.68862312 13.48023919 -12.69421307 13.31871986 -16.875 15.5 Z " fill="#EFF0F1" transform="translate(54,126)"/>
<path d="M0 0 C6.21561534 2.81211335 9.94237587 7.78602335 13.32421875 13.53515625 C15.47040083 20.80832886 15.57394611 27.72368923 12.44921875 34.72265625 C9.10832134 40.60944998 4.58947649 43.84579385 -1.42578125 46.72265625 C-8.87591699 48.2126834 -15.77486735 47.97708746 -22.55078125 44.34765625 C-27.50792922 40.94569195 -31.46160078 37.03733923 -33.55078125 31.34765625 C-34.64798531 23.25696889 -34.42084114 15.16574009 -29.55078125 8.34765625 C-21.22170832 -0.5275854 -11.96500037 -3.05996181 0 0 Z M-15.55078125 18.34765625 C-16.9207587 19.50511112 -16.9207587 19.50511112 -16.86328125 22.66015625 C-16.85168326 26.32096687 -16.85168326 26.32096687 -14.92578125 28.78515625 C-11.83392894 30.81926961 -10.187107 30.95371054 -6.55078125 30.34765625 C-4.05078125 28.84765625 -4.05078125 28.84765625 -2.55078125 26.34765625 C-2.05711438 22.96251198 -2.1731118 21.0831178 -3.73828125 18.03515625 C-7.96601937 14.09898627 -11.18257418 15.19284003 -15.55078125 18.34765625 Z " fill="#EFF0F1" transform="translate(122.55078125,29.65234375)"/>
<path d="M0 0 C4.35058858 3.63063302 6.77146717 7.16336671 7.50390625 12.78125 C7.74066497 18.95225145 7.48686181 23.15947372 3.125 27.875 C-1.79857725 32.41984054 -6.03292956 34.34710013 -12.828125 34.1171875 C-19.23933522 33.35860919 -22.84137657 30.30717887 -26.7109375 25.49609375 C-30.04790839 20.84896986 -29.48100057 15.3703234 -28.875 9.875 C-26.75737235 4.19756724 -23.2215103 0.71888846 -17.875 -2.125 C-11.95513023 -4.02869256 -5.22837342 -3.43288449 0 0 Z M-14.625 11 C-16.44181719 13.72522579 -16.282974 15.67920369 -15.875 18.875 C-13.02673402 21.24192966 -13.02673402 21.24192966 -9.6875 20.5 C-8.759375 20.29375 -7.83125 20.0875 -6.875 19.875 C-5.68654703 15.24476382 -5.68654703 15.24476382 -7.0625 10.9375 C-9.76564849 9.35289571 -11.97274808 9.29498091 -14.625 11 Z " fill="#EAEBEC" transform="translate(271.875,144.125)"/>
<path d="M0 0 C4.1960766 2.76559594 6.35122631 5.22723405 8 10 C8.92629253 16.64691231 8.50900245 21.85701756 4.47265625 27.34375 C0.84086258 31.4283137 -2.5377666 33.15285313 -7.875 33.9375 C-12.80484266 34.22618448 -16.79051594 33.6771237 -21 31 C-24.48580182 27.71165101 -27.81981396 24.31469754 -28.203125 19.390625 C-28.36421258 8.59775719 -28.36421258 8.59775719 -25 4 C-17.12307821 -3.53444693 -9.90346957 -5.13513237 0 0 Z M-13.625 11.25 C-15.22757262 13.28963788 -15.92093089 14.39071943 -16 17 C-14.47981752 19.43695474 -14.47981752 19.43695474 -12 21 C-8.60845705 20.83849795 -7.41703243 20.41703243 -5 18 C-4.49985047 15.54258463 -4.49985047 15.54258463 -5 13 C-6.73038072 11.09798258 -6.73038072 11.09798258 -9 10 C-11.94538008 9.69514462 -11.94538008 9.69514462 -13.625 11.25 Z " fill="#EAECED" transform="translate(317,131)"/>
<path d="M0 0 C3.87669353 2.03422198 6.68761617 4.48110931 8.81640625 8.265625 C10.49503226 13.77883743 11.82015709 19.20281733 9.37890625 24.640625 C6.39875915 29.49603473 2.24115731 33.45737465 -3.18359375 35.265625 C-9.15827664 35.86772483 -13.88727012 35.32119632 -19.18359375 32.265625 C-22.76681922 28.87249107 -25.79451487 24.92583871 -26.51953125 19.96875 C-26.61606704 13.90630269 -25.98901682 9.14132331 -22.18359375 4.265625 C-16.20880026 -1.63735607 -7.86578543 -2.64538043 0 0 Z M-11.30859375 12.390625 C-13.48567708 14.19270833 -13.48567708 14.19270833 -13.62109375 17.328125 C-13.47671875 18.2975 -13.33234375 19.266875 -13.18359375 20.265625 C-10.35961309 22.56107341 -10.35961309 22.56107341 -7.12109375 22.203125 C-3.96484296 21.57110106 -3.96484296 21.57110106 -2.80859375 18.703125 C-2.60234375 17.89875 -2.39609375 17.094375 -2.18359375 16.265625 C-3.8069918 14.55678495 -5.47678428 12.89115783 -7.18359375 11.265625 C-9.28973495 11.10966243 -9.28973495 11.10966243 -11.30859375 12.390625 Z " fill="#EBECED" transform="translate(246.18359375,185.734375)"/>
<path d="M0 0 C0.66 0.33 1.32 0.66 2 1 C-0.31 3.31 -2.62 5.62 -5 8 C-5.99 7.67 -6.98 7.34 -8 7 C-5.36 4.69 -2.72 2.38 0 0 Z " fill="#ADB2B7" transform="translate(102,99)"/>
<path d="" fill="#000000" transform="translate(0,0)"/>
<path d="" fill="#000000" transform="translate(0,0)"/>
<path d="" fill="#000000" transform="translate(0,0)"/>
<path d="" fill="#000000" transform="translate(0,0)"/>
<path d="" fill="#000000" transform="translate(0,0)"/>
<path d="" fill="#000000" transform="translate(0,0)"/>
<path d="" fill="#000000" transform="translate(0,0)"/>
<path d="" fill="#000000" transform="translate(0,0)"/>
<path d="" fill="#000000" transform="translate(0,0)"/>
<path d="" fill="#000000" transform="translate(0,0)"/>
<path d="" fill="#000000" transform="translate(0,0)"/>
<path d="" fill="#000000" transform="translate(0,0)"/>
<path d="" fill="#000000" transform="translate(0,0)"/>
<path d="" fill="#000000" transform="translate(0,0)"/>
<path d="" fill="#000000" transform="translate(0,0)"/>
<path d="" fill="#000000" transform="translate(0,0)"/>
<path d="" fill="#000000" transform="translate(0,0)"/>
<path d="" fill="#000000" transform="translate(0,0)"/>
<path d="" fill="#000000" transform="translate(0,0)"/>
<path d="" fill="#000000" transform="translate(0,0)"/>
<path d="" fill="#000000" transform="translate(0,0)"/>
<path d="" fill="#000000" transform="translate(0,0)"/>
<path d="" fill="#000000" transform="translate(0,0)"/>
<path d="" fill="#000000" transform="translate(0,0)"/>
<path d="" fill="#000000" transform="translate(0,0)"/>
<path d="" fill="#000000" transform="translate(0,0)"/>
<path d="" fill="#000000" transform="translate(0,0)"/>
<path d="" fill="#000000" transform="translate(0,0)"/>
<path d="" fill="#000000" transform="translate(0,0)"/>
<path d="" fill="#000000" transform="translate(0,0)"/>
<path d="" fill="#000000" transform="translate(0,0)"/>
<path d="" fill="#000000" transform="translate(0,0)"/>
<path d="" fill="#000000" transform="translate(0,0)"/>
<path d="" fill="#000000" transform="translate(0,0)"/>
<path d="" fill="#000000" transform="translate(0,0)"/>
<path d="" fill="#000000" transform="translate(0,0)"/>
<path d="" fill="#000000" transform="translate(0,0)"/>
<path d="" fill="#000000" transform="translate(0,0)"/>
<path d="" fill="#000000" transform="translate(0,0)"/>
<path d="" fill="#000000" transform="translate(0,0)"/>
<path d="" fill="#000000" transform="translate(0,0)"/>
<path d="" fill="#000000" transform="translate(0,0)"/>
<path d="" fill="#000000" transform="translate(0,0)"/>
<path d="" fill="#000000" transform="translate(0,0)"/>
<path d="" fill="#000000" transform="translate(0,0)"/>
<path d="" fill="#000000" transform="translate(0,0)"/>
<path d="" fill="#000000" transform="translate(0,0)"/>
<path d="" fill="#000000" transform="translate(0,0)"/>
<path d="" fill="#000000" transform="translate(0,0)"/>
<path d="" fill="#000000" transform="translate(0,0)"/>
<path d="" fill="#000000" transform="translate(0,0)"/>
<path d="" fill="#000000" transform="translate(0,0)"/>
<path d="" fill="#000000" transform="translate(0,0)"/>
<path d="" fill="#000000" transform="translate(0,0)"/>
<path d="" fill="#000000" transform="translate(0,0)"/>
<path d="" fill="#000000" transform="translate(0,0)"/>
<path d="" fill="#000000" transform="translate(0,0)"/>
<path d="" fill="#000000" transform="translate(0,0)"/>
</svg>
