<?xml version="1.0" encoding="UTF-8"?>
<svg version="1.1" xmlns="http://www.w3.org/2000/svg" width="319" height="219">
<path d="M0 0 C0.78827179 -0.01283524 1.57654358 -0.02567047 2.38870239 -0.03889465 C3.23351166 -0.04628159 4.07832092 -0.05366852 4.94873047 -0.0612793 C6.26972244 -0.07338692 6.26972244 -0.07338692 7.61740112 -0.08573914 C9.48173062 -0.09955578 11.34608516 -0.11028873 13.21044922 -0.11816406 C15.10342907 -0.1296553 16.99637726 -0.15006162 18.88916016 -0.1796875 C32.79606249 -0.3972107 43.36459585 -0.12654851 53.96044922 9.88793945 C60.3741048 17.30096148 62.33082632 25.38427596 62.21435547 34.9465332 C61.45695373 43.89469374 57.73304084 51.31107766 50.94091797 57.17700195 C47.2522408 59.67954316 43.31656106 61.53570951 39.28466797 63.4152832 C31.90092054 66.92256323 28.87746175 69.96326609 25.56591797 77.48950195 C21.15900148 87.42509549 15.37578485 94.17840923 5.11279297 98.31762695 C-3.25800555 100.58557729 -12.89785502 100.31154592 -20.78173828 96.55981445 C-29.21658708 91.43813954 -35.16428957 84.74331702 -37.59887695 75.02148438 C-38.17906991 71.43536864 -38.26023319 67.89416285 -38.29736328 64.27075195 C-38.30543503 63.50960083 -38.31350677 62.74844971 -38.32182312 61.9642334 C-38.33561729 60.35386395 -38.3463602 58.74346585 -38.35424805 57.13305664 C-38.36570358 55.50992063 -38.38605217 53.88682035 -38.41577148 52.26391602 C-38.70785929 36.27904397 -36.44339385 23.33671241 -25.21533203 11.1809082 C-18.52392001 4.80487011 -9.36437047 0.13373372 0 0 Z M-17.05908203 25.17700195 C-20.92393207 31.36781037 -22.22120952 36.86858369 -22.26220703 44.1340332 C-22.2679071 44.91461594 -22.27360718 45.69519867 -22.27947998 46.49943542 C-22.28892153 48.15113981 -22.29546061 49.80286297 -22.29931641 51.45458984 C-22.30900621 53.96982082 -22.34003004 56.48422886 -22.37158203 58.99926758 C-22.37811417 60.60668462 -22.38336381 62.21410748 -22.38720703 63.8215332 C-22.39955383 64.56861038 -22.41190063 65.31568756 -22.42462158 66.08540344 C-22.4014629 71.56899961 -21.30000422 75.72015757 -17.55908203 79.8215332 C-12.8251061 83.50762383 -9.36176268 84.60316095 -3.47314453 84.5168457 C0.76050581 83.92084638 3.79099574 82.00256148 6.94091797 79.17700195 C9.16722258 75.96850413 10.63511352 72.85811186 12.22998047 69.3059082 C17.54434503 57.92407395 23.90084481 53.14061015 35.21777344 48.27954102 C40.32361023 45.96219102 43.29067414 43.15000275 45.94091797 38.17700195 C47.66347715 32.3633647 46.77416546 27.45105386 43.94091797 22.17700195 C40.99348108 18.84723245 38.16909739 16.58639509 33.94091797 15.17700195 C31.38771513 15.04449858 28.86263378 14.9648615 26.30810547 14.9387207 C25.18119797 14.92661308 25.18119797 14.92661308 24.03152466 14.91426086 C22.43949681 14.90043534 20.84743952 14.88970633 19.25537109 14.88183594 C17.63972183 14.87035564 16.0241093 14.84996672 14.40869141 14.8203125 C2.08732057 14.59424389 -8.4327417 15.34073337 -17.05908203 25.17700195 Z " fill="#141414" transform="translate(98.05908203125,62.822998046875)"/>
<path d="M0 0 C0.83934082 0.19223145 1.67868164 0.38446289 2.54345703 0.58251953 C11.04372166 2.71639991 17.54998898 6.35097167 22.55859375 13.65234375 C26.17222497 20.0147043 26.46952548 26.69207843 24.75 33.75 C22.26566688 39.56395801 18.13312781 44.42604924 12.75 47.75 C8.74051274 49.33251736 4.60562738 50.36289893 0.390625 51.2421875 C-6.0075895 52.85277253 -8.56445545 56.13941761 -12.41015625 61.37109375 C-16.02228277 66.04155033 -20.49380036 68.42164624 -26.25 69.75 C-33.41676549 70.55855816 -39.06670328 69.51641289 -45.25 65.75 C-50.7576554 61.099091 -54.56886103 55.87800341 -55.5234375 48.69140625 C-55.81202807 41.93172724 -54.56825071 35.67495824 -53.0625 29.125 C-52.86640137 28.24271729 -52.67030273 27.36043457 -52.46826172 26.45141602 C-50.38573634 17.89036674 -46.96648115 10.62692101 -40.25 4.75 C-39.46625 4.04875 -38.6825 3.3475 -37.875 2.625 C-26.02864094 -5.83668505 -13.21742557 -3.15070777 0 0 Z M-35.25 16.75 C-40.95457758 25.91189733 -44.48619424 38.97745016 -43.25 49.75 C-41.52128428 53.93531174 -39.41960522 55.98950002 -35.25 57.75 C-30.67407616 58.25843598 -28.34140334 58.26229137 -24.1875 56.3125 C-21.58613978 54.04322832 -19.98229595 52.08494189 -18 49.3125 C-13.68437574 43.55833432 -8.48840024 40.48135439 -1.375 39.25390625 C-0.42625 39.12886719 0.5225 39.00382812 1.5 38.875 C5.47515425 38.27253328 7.61887367 37.53621525 10.375 34.5625 C12.88662593 31.05350377 13.82956156 28.12588588 13.75 23.75 C11.98673727 18.46021181 9.49791111 16.48835505 4.75 13.75 C1.69518331 12.61677854 -1.40459913 11.79384386 -4.5625 11 C-5.7680957 10.66935547 -5.7680957 10.66935547 -6.99804688 10.33203125 C-17.82541814 7.52719332 -27.5651815 7.40359912 -35.25 16.75 Z " fill="#1A1A1A" transform="translate(277.25,141.25)"/>
<path d="M0 0 C4.78495824 3.88412258 8.34457317 8.15676793 9.59765625 14.296875 C10.07108854 20.16743534 9.66995674 25.15924876 6.59765625 30.296875 C2.30099853 35.23556203 -2.85277293 39.18007429 -9.40234375 40.296875 C-15.87153397 40.5999703 -21.34000078 39.6623955 -26.6796875 35.890625 C-31.90178866 31.05929332 -34.18690171 25.52850554 -34.65234375 18.546875 C-34.60189735 14.04033015 -33.26243524 10.35835916 -31.40234375 6.296875 C-31.139375 5.61496094 -30.87640625 4.93304688 -30.60546875 4.23046875 C-28.98955964 1.63347196 -27.27572417 0.9020109 -24.52734375 -0.390625 C-23.66367188 -0.80699219 -22.8 -1.22335938 -21.91015625 -1.65234375 C-14.67044204 -4.68580656 -6.68422984 -4.36134146 0 0 Z M-17.27734375 13.421875 C-18.97686988 16.25441856 -18.93075696 18.06034407 -18.40234375 21.296875 C-16.02391798 23.70093884 -16.02391798 23.70093884 -13.40234375 25.296875 C-10.48717083 24.22286392 -8.62424199 23.51877324 -6.40234375 21.296875 C-6.0721871 18.19340246 -5.89703081 16.13906324 -7.52734375 13.421875 C-10.79681684 11.46019114 -14.00787066 11.46019114 -17.27734375 13.421875 Z " fill="#161616" transform="translate(101.40234375,9.703125)"/>
<path d="M0 0 C4.83415824 2.84723727 8.0861835 7.547367 10.5625 12.5 C11.24518472 19.93151077 11.72527161 26.7374596 7.05078125 32.88671875 C1.89122559 38.47962292 -3.01051981 41.45846548 -10.75 41.875 C-16.69698819 41.7048 -21.82042105 39.8598447 -26.265625 35.8515625 C-31.7387276 29.76738534 -32.84013128 24.4656419 -32.69140625 16.375 C-32.37431727 12.78457713 -31.46797086 10.47318947 -29.4375 7.5 C-28.880625 6.63375 -28.32375 5.7675 -27.75 4.875 C-20.54104287 -2.52879381 -9.53152963 -4.0980089 0 0 Z M-15.1875 14.75 C-16.65763929 16.80819501 -17.28811029 17.96037496 -17.4375 20.5 C-16.10290003 23.68821104 -15.2111621 25.13352848 -12.0625 26.625 C-9.20433995 26.72726125 -9.20433995 26.72726125 -6.5625 24.4375 C-4.12612386 21.67382474 -4.12612386 21.67382474 -4.4375 18.3125 C-5.22487233 15.20976172 -5.22487233 15.20976172 -8.4375 13.5 C-11.31684288 13.14008214 -12.79670539 13.04228956 -15.1875 14.75 Z " fill="#141414" transform="translate(50.4375,36.5)"/>
<path d="M0 0 C5.2216357 3.00378631 9.83744292 7.76232875 11.75 13.5 C12.38583951 21.21346286 12.6765776 27.31019738 7.75 33.5 C2.63767726 38.70923881 -2.06727642 41.76653077 -9.5625 41.875 C-16.49389862 41.73506598 -20.78898987 39.52349722 -26.0625 35.1875 C-30.74738579 29.43178317 -31.83407645 24.52086704 -31.59375 17.2109375 C-30.72285431 10.34273737 -27.34287679 6.05742434 -22.12890625 1.7265625 C-15.56697673 -2.55710874 -7.19771859 -3.17092476 0 0 Z M-14.625 15.6875 C-16.4818195 18.33771061 -16.4818195 18.33771061 -16.1875 21.125 C-15.171111 23.69985213 -14.54093722 24.94543546 -12.25 26.5 C-9.79290625 27.08350505 -9.79290625 27.08350505 -7.25 26.5 C-4.51748653 24.50600369 -3.41752054 23.3376027 -2.75 20 C-3.41752054 16.6623973 -4.51748653 15.49399631 -7.25 13.5 C-10.92261394 12.67366186 -11.83754654 13.12010866 -14.625 15.6875 Z " fill="#131313" transform="translate(35.25,92.5)"/>
<path d="M0 0 C4.01114716 2.3416826 6.93676217 4.63232489 8.68359375 9.05078125 C10.06638152 15.07578512 9.96346367 19.67667006 6.68359375 25.05078125 C2.57205491 29.52111003 -0.8304575 31.84010763 -7.00390625 32.36328125 C-11.7836171 32.28405952 -15.44127142 30.81750723 -19.31640625 28.05078125 C-23.12685266 23.75181607 -24.41483092 19.69379551 -24.31640625 14.05078125 C-23.14447849 7.76498688 -20.97084661 3.88360912 -15.69140625 0.23828125 C-10.39490142 -1.62530378 -5.29733824 -2.17074737 0 0 Z M-11.31640625 12.05078125 C-12.25031628 13.8673494 -12.25031628 13.8673494 -12.31640625 16.05078125 C-10.96476955 18.29833878 -10.96476955 18.29833878 -9.31640625 20.05078125 C-6.86415931 19.94464289 -6.86415931 19.94464289 -4.31640625 19.05078125 C-2.94174 16.57442113 -2.94174 16.57442113 -2.31640625 14.05078125 C-3.56524895 12.46745595 -3.56524895 12.46745595 -5.31640625 11.05078125 C-9.09279945 10.75263885 -9.09279945 10.75263885 -11.31640625 12.05078125 Z " fill="#1E1E1E" transform="translate(228.31640625,107.94921875)"/>
<path d="M0 0 C4.02031988 2.66592641 6.39453715 5.35089155 7.89453125 10.02734375 C8.55173492 15.06316685 8.50079274 18.81482077 6.20703125 23.40234375 C2.53488022 27.5707314 -0.67325333 30.66699067 -6.375 31.265625 C-12.1663813 31.43465149 -15.62504197 31.08106322 -20.10546875 27.02734375 C-24.16185229 21.65537636 -25.65888129 17.7789768 -25.10546875 11.02734375 C-23.20643048 5.21086081 -20.59914682 1.94951294 -15.10546875 -0.97265625 C-10.1383156 -2.62837397 -4.77957286 -2.20800305 0 0 Z M-11.85546875 11.21484375 C-13.35695764 13.01218131 -13.35695764 13.01218131 -13.04296875 15.58984375 C-12.32641657 18.17395399 -12.32641657 18.17395399 -10.04296875 19.33984375 C-9.40359375 19.56671875 -8.76421875 19.79359375 -8.10546875 20.02734375 C-6.00591545 18.87050046 -6.00591545 18.87050046 -4.10546875 17.02734375 C-3.5219637 14.4844375 -3.5219637 14.4844375 -4.10546875 12.02734375 C-7.20540605 9.96071888 -8.63487357 9.02943988 -11.85546875 11.21484375 Z " fill="#1C1C1C" transform="translate(209.10546875,146.97265625)"/>
<path d="M0 0 C3.80689957 3.27570428 6.36091738 5.817262 7.03515625 10.96875 C7.19488525 16.13563581 7.24496328 20.28070829 3.6875 24.3125 C-0.93914345 28.73688582 -4.56952663 30.69843326 -11.12109375 30.58984375 C-16.44669389 29.91583732 -20.2366576 27.52627091 -23.75 23.5625 C-26.25644546 18.34909344 -26.65164273 14.3134421 -25.6875 8.625 C-23.56908216 3.52153883 -20.79866568 1.16990328 -16.0625 -1.5625 C-10.08664701 -3.3552559 -5.54645647 -2.82555329 0 0 Z M-13.1875 11 C-14.64301701 13.33122225 -14.64301701 13.33122225 -13.5 16.0625 C-13.108125 16.805 -12.71625 17.5475 -12.3125 18.3125 C-9.93944422 18.73030879 -9.93944422 18.73030879 -7.3125 18.3125 C-5.4500562 15.90391286 -5.4500562 15.90391286 -4.3125 13.3125 C-5.53840192 11.23272703 -5.53840192 11.23272703 -7.3125 9.3125 C-11.23739632 8.86652351 -11.23739632 8.86652351 -13.1875 11 Z " fill="#1A1A1A" transform="translate(271.3125,97.6875)"/>
<path d="M0 0 C0.66 0.33 1.32 0.66 2 1 C0.38113585 2.67262717 -1.2452729 4.33795537 -2.875 6 C-3.77992187 6.928125 -4.68484375 7.85625 -5.6171875 8.8125 C-8 11 -8 11 -10 11 C-8.55218207 7.55571735 -6.72305391 5.63869038 -3.875 3.25 C-3.15054688 2.63640625 -2.42609375 2.0228125 -1.6796875 1.390625 C-0.84824219 0.70226562 -0.84824219 0.70226562 0 0 Z " fill="#717171" transform="translate(79,69)"/>
<path d="M0 0 C0.66 0.33 1.32 0.66 2 1 C0.88121617 2.17262904 -0.24523051 3.33795138 -1.375 4.5 C-2.00148438 5.1496875 -2.62796875 5.799375 -3.2734375 6.46875 C-5 8 -5 8 -7 8 C-5.50902342 4.2047869 -3.24299151 2.38957269 0 0 Z " fill="#6D6D6D" transform="translate(266,183)"/>
<path d="" fill="#FFFFFF" transform="translate(0,0)"/>
<path d="" fill="#FFFFFF" transform="translate(0,0)"/>
<path d="" fill="#FFFFFF" transform="translate(0,0)"/>
<path d="" fill="#FFFFFF" transform="translate(0,0)"/>
<path d="" fill="#FFFFFF" transform="translate(0,0)"/>
<path d="" fill="#FFFFFF" transform="translate(0,0)"/>
<path d="" fill="#FFFFFF" transform="translate(0,0)"/>
<path d="" fill="#FFFFFF" transform="translate(0,0)"/>
<path d="" fill="#FFFFFF" transform="translate(0,0)"/>
<path d="" fill="#FFFFFF" transform="translate(0,0)"/>
<path d="" fill="#FFFFFF" transform="translate(0,0)"/>
<path d="" fill="#FFFFFF" transform="translate(0,0)"/>
<path d="" fill="#FFFFFF" transform="translate(0,0)"/>
<path d="" fill="#FFFFFF" transform="translate(0,0)"/>
<path d="" fill="#FFFFFF" transform="translate(0,0)"/>
<path d="" fill="#FFFFFF" transform="translate(0,0)"/>
<path d="" fill="#FFFFFF" transform="translate(0,0)"/>
<path d="" fill="#FFFFFF" transform="translate(0,0)"/>
<path d="" fill="#FFFFFF" transform="translate(0,0)"/>
<path d="" fill="#FFFFFF" transform="translate(0,0)"/>
<path d="" fill="#FFFFFF" transform="translate(0,0)"/>
<path d="" fill="#FFFFFF" transform="translate(0,0)"/>
<path d="" fill="#FFFFFF" transform="translate(0,0)"/>
<path d="" fill="#FFFFFF" transform="translate(0,0)"/>
<path d="" fill="#FFFFFF" transform="translate(0,0)"/>
<path d="" fill="#FFFFFF" transform="translate(0,0)"/>
<path d="" fill="#FFFFFF" transform="translate(0,0)"/>
<path d="" fill="#FFFFFF" transform="translate(0,0)"/>
<path d="" fill="#FFFFFF" transform="translate(0,0)"/>
<path d="" fill="#FFFFFF" transform="translate(0,0)"/>
<path d="" fill="#FFFFFF" transform="translate(0,0)"/>
<path d="" fill="#FFFFFF" transform="translate(0,0)"/>
<path d="" fill="#FFFFFF" transform="translate(0,0)"/>
<path d="" fill="#FFFFFF" transform="translate(0,0)"/>
<path d="" fill="#FFFFFF" transform="translate(0,0)"/>
<path d="" fill="#FFFFFF" transform="translate(0,0)"/>
<path d="" fill="#FFFFFF" transform="translate(0,0)"/>
<path d="" fill="#FFFFFF" transform="translate(0,0)"/>
<path d="" fill="#FFFFFF" transform="translate(0,0)"/>
<path d="" fill="#FFFFFF" transform="translate(0,0)"/>
<path d="" fill="#FFFFFF" transform="translate(0,0)"/>
<path d="" fill="#FFFFFF" transform="translate(0,0)"/>
<path d="" fill="#FFFFFF" transform="translate(0,0)"/>
<path d="" fill="#FFFFFF" transform="translate(0,0)"/>
<path d="" fill="#FFFFFF" transform="translate(0,0)"/>
<path d="" fill="#FFFFFF" transform="translate(0,0)"/>
<path d="" fill="#FFFFFF" transform="translate(0,0)"/>
<path d="" fill="#FFFFFF" transform="translate(0,0)"/>
<path d="" fill="#FFFFFF" transform="translate(0,0)"/>
<path d="" fill="#FFFFFF" transform="translate(0,0)"/>
<path d="" fill="#FFFFFF" transform="translate(0,0)"/>
<path d="" fill="#FFFFFF" transform="translate(0,0)"/>
<path d="" fill="#FFFFFF" transform="translate(0,0)"/>
<path d="" fill="#FFFFFF" transform="translate(0,0)"/>
<path d="" fill="#FFFFFF" transform="translate(0,0)"/>
<path d="" fill="#FFFFFF" transform="translate(0,0)"/>
<path d="" fill="#FFFFFF" transform="translate(0,0)"/>
<path d="" fill="#FFFFFF" transform="translate(0,0)"/>
<path d="" fill="#FFFFFF" transform="translate(0,0)"/>
<path d="" fill="#FFFFFF" transform="translate(0,0)"/>
<path d="" fill="#FFFFFF" transform="translate(0,0)"/>
<path d="" fill="#FFFFFF" transform="translate(0,0)"/>
<path d="" fill="#FFFFFF" transform="translate(0,0)"/>
<path d="" fill="#FFFFFF" transform="translate(0,0)"/>
<path d="" fill="#FFFFFF" transform="translate(0,0)"/>
<path d="" fill="#FFFFFF" transform="translate(0,0)"/>
<path d="" fill="#FFFFFF" transform="translate(0,0)"/>
<path d="" fill="#FFFFFF" transform="translate(0,0)"/>
<path d="" fill="#FFFFFF" transform="translate(0,0)"/>
<path d="" fill="#FFFFFF" transform="translate(0,0)"/>
<path d="" fill="#FFFFFF" transform="translate(0,0)"/>
<path d="" fill="#FFFFFF" transform="translate(0,0)"/>
<path d="" fill="#FFFFFF" transform="translate(0,0)"/>
<path d="" fill="#FFFFFF" transform="translate(0,0)"/>
</svg>
